<?xml version="1.0" encoding="UTF-8" standalone="no"?><svg xmlns="http://www.w3.org/2000/svg" xmlns:xlink="http://www.w3.org/1999/xlink" contentScriptType="application/ecmascript" contentStyleType="text/css" height="517px" preserveAspectRatio="none" style="width:769px;height:517px;" version="1.1" viewBox="0 0 769 517" width="769px" zoomAndPan="magnify"><defs><filter height="300%" id="fxsm4extbfemh" width="300%" x="-1" y="-1"><feGaussianBlur result="blurOut" stdDeviation="2.0"/><feColorMatrix in="blurOut" result="blurOut2" type="matrix" values="0 0 0 0 0 0 0 0 0 0 0 0 0 0 0 0 0 0 .4 0"/><feOffset dx="4.0" dy="4.0" in="blurOut2" result="blurOut3"/><feBlend in="SourceGraphic" in2="blurOut3" mode="normal"/></filter></defs><g><rect fill="#FFFFFF" filter="url(#fxsm4extbfemh)" height="250.4395" style="stroke: #000000; stroke-width: 2.0;" width="744" x="13" y="162.1094"/><rect fill="#FFFFFF" height="57.2656" style="stroke: none; stroke-width: 1.0;" width="744" x="13" y="355.2832"/><line style="stroke: #A80036; stroke-width: 1.0; stroke-dasharray: 5.0,5.0;" x1="71" x2="71" y1="86.4883" y2="429.5488"/><line style="stroke: #A80036; stroke-width: 1.0; stroke-dasharray: 5.0,5.0;" x1="221.5" x2="221.5" y1="86.4883" y2="429.5488"/><line style="stroke: #A80036; stroke-width: 1.0; stroke-dasharray: 5.0,5.0;" x1="331.5" x2="331.5" y1="86.4883" y2="429.5488"/><line style="stroke: #A80036; stroke-width: 1.0; stroke-dasharray: 5.0,5.0;" x1="507.5" x2="507.5" y1="86.4883" y2="429.5488"/><line style="stroke: #A80036; stroke-width: 1.0; stroke-dasharray: 5.0,5.0;" x1="644" x2="644" y1="86.4883" y2="429.5488"/><line style="stroke: #A80036; stroke-width: 1.0; stroke-dasharray: 5.0,5.0;" x1="712" x2="712" y1="86.4883" y2="429.5488"/><text fill="#000000" font-family="sans-serif" font-size="14" lengthAdjust="spacingAndGlyphs" textLength="90" x="23" y="83.5352">EmailCrawler</text><ellipse cx="71" cy="13" fill="#FEFECE" filter="url(#fxsm4extbfemh)" rx="8" ry="8" style="stroke: #A80036; stroke-width: 2.0;"/><path d="M71,21 L71,48 M58,29 L84,29 M71,48 L58,63 M71,48 L84,63 " fill="none" filter="url(#fxsm4extbfemh)" style="stroke: #A80036; stroke-width: 2.0;"/><text fill="#000000" font-family="sans-serif" font-size="14" lengthAdjust="spacingAndGlyphs" textLength="90" x="23" y="442.084">EmailCrawler</text><ellipse cx="71" cy="455.0371" fill="#FEFECE" filter="url(#fxsm4extbfemh)" rx="8" ry="8" style="stroke: #A80036; stroke-width: 2.0;"/><path d="M71,463.0371 L71,490.0371 M58,471.0371 L84,471.0371 M71,490.0371 L58,505.0371 M71,490.0371 L84,505.0371 " fill="none" filter="url(#fxsm4extbfemh)" style="stroke: #A80036; stroke-width: 2.0;"/><rect fill="#FEFECE" filter="url(#fxsm4extbfemh)" height="30.4883" style="stroke: #A80036; stroke-width: 1.5;" width="99" x="170.5" y="51"/><text fill="#000000" font-family="sans-serif" font-size="14" lengthAdjust="spacingAndGlyphs" textLength="85" x="177.5" y="71.5352">EmailService</text><rect fill="#FEFECE" filter="url(#fxsm4extbfemh)" height="30.4883" style="stroke: #A80036; stroke-width: 1.5;" width="99" x="170.5" y="428.5488"/><text fill="#000000" font-family="sans-serif" font-size="14" lengthAdjust="spacingAndGlyphs" textLength="85" x="177.5" y="449.084">EmailService</text><rect fill="#FEFECE" filter="url(#fxsm4extbfemh)" height="30.4883" style="stroke: #A80036; stroke-width: 1.5;" width="92" x="283.5" y="51"/><text fill="#000000" font-family="sans-serif" font-size="14" lengthAdjust="spacingAndGlyphs" textLength="78" x="290.5" y="71.5352">Application</text><rect fill="#FEFECE" filter="url(#fxsm4extbfemh)" height="30.4883" style="stroke: #A80036; stroke-width: 1.5;" width="92" x="283.5" y="428.5488"/><text fill="#000000" font-family="sans-serif" font-size="14" lengthAdjust="spacingAndGlyphs" textLength="78" x="290.5" y="449.084">Application</text><text fill="#000000" font-family="sans-serif" font-size="14" lengthAdjust="spacingAndGlyphs" textLength="100" x="454.5" y="83.5352">OptionCrawler</text><ellipse cx="507.5" cy="13" fill="#FEFECE" filter="url(#fxsm4extbfemh)" rx="8" ry="8" style="stroke: #A80036; stroke-width: 2.0;"/><path d="M507.5,21 L507.5,48 M494.5,29 L520.5,29 M507.5,48 L494.5,63 M507.5,48 L520.5,63 " fill="none" filter="url(#fxsm4extbfemh)" style="stroke: #A80036; stroke-width: 2.0;"/><text fill="#000000" font-family="sans-serif" font-size="14" lengthAdjust="spacingAndGlyphs" textLength="100" x="454.5" y="442.084">OptionCrawler</text><ellipse cx="507.5" cy="455.0371" fill="#FEFECE" filter="url(#fxsm4extbfemh)" rx="8" ry="8" style="stroke: #A80036; stroke-width: 2.0;"/><path d="M507.5,463.0371 L507.5,490.0371 M494.5,471.0371 L520.5,471.0371 M507.5,490.0371 L494.5,505.0371 M507.5,490.0371 L520.5,505.0371 " fill="none" filter="url(#fxsm4extbfemh)" style="stroke: #A80036; stroke-width: 2.0;"/><rect fill="#FEFECE" filter="url(#fxsm4extbfemh)" height="30.4883" style="stroke: #A80036; stroke-width: 1.5;" width="43" x="621" y="51"/><text fill="#000000" font-family="sans-serif" font-size="14" lengthAdjust="spacingAndGlyphs" textLength="29" x="628" y="71.5352">SRM</text><rect fill="#FEFECE" filter="url(#fxsm4extbfemh)" height="30.4883" style="stroke: #A80036; stroke-width: 1.5;" width="43" x="621" y="428.5488"/><text fill="#000000" font-family="sans-serif" font-size="14" lengthAdjust="spacingAndGlyphs" textLength="29" x="628" y="449.084">SRM</text><text fill="#000000" font-family="sans-serif" font-size="14" lengthAdjust="spacingAndGlyphs" textLength="63" x="678" y="83.5352">Database</text><path d="M694.5,34 C694.5,24 712.5,24 712.5,24 C712.5,24 730.5,24 730.5,34 L730.5,60 C730.5,70 712.5,70 712.5,70 C712.5,70 694.5,70 694.5,60 L694.5,34 " fill="#FEFECE" filter="url(#fxsm4extbfemh)" style="stroke: #000000; stroke-width: 1.5;"/><path d="M694.5,34 C694.5,44 712.5,44 712.5,44 C712.5,44 730.5,44 730.5,34 " fill="none" style="stroke: #000000; stroke-width: 1.5;"/><text fill="#000000" font-family="sans-serif" font-size="14" lengthAdjust="spacingAndGlyphs" textLength="63" x="678" y="442.084">Database</text><path d="M694.5,455.0371 C694.5,445.0371 712.5,445.0371 712.5,445.0371 C712.5,445.0371 730.5,445.0371 730.5,455.0371 L730.5,481.0371 C730.5,491.0371 712.5,491.0371 712.5,491.0371 C712.5,491.0371 694.5,491.0371 694.5,481.0371 L694.5,455.0371 " fill="#FEFECE" filter="url(#fxsm4extbfemh)" style="stroke: #000000; stroke-width: 1.5;"/><path d="M694.5,455.0371 C694.5,465.0371 712.5,465.0371 712.5,465.0371 C712.5,465.0371 730.5,465.0371 730.5,455.0371 " fill="none" style="stroke: #000000; stroke-width: 1.5;"/><polygon fill="#A80036" points="210,113.7988,220,117.7988,210,121.7988,214,117.7988" style="stroke: #A80036; stroke-width: 1.0;"/><line style="stroke: #A80036; stroke-width: 1.0;" x1="71" x2="216" y1="117.7988" y2="117.7988"/><text fill="#000000" font-family="sans-serif" font-size="13" font-weight="bold" lengthAdjust="spacingAndGlyphs" textLength="9" x="78" y="113.0566">1</text><text fill="#000000" font-family="sans-serif" font-size="13" lengthAdjust="spacingAndGlyphs" textLength="114" x="91" y="113.0566">Monitoring Emails</text><polygon fill="#A80036" points="82,143.1094,72,147.1094,82,151.1094,78,147.1094" style="stroke: #A80036; stroke-width: 1.0;"/><line style="stroke: #A80036; stroke-width: 1.0; stroke-dasharray: 2.0,2.0;" x1="76" x2="221" y1="147.1094" y2="147.1094"/><text fill="#000000" font-family="sans-serif" font-size="13" font-weight="bold" lengthAdjust="spacingAndGlyphs" textLength="9" x="88" y="142.3672">2</text><text fill="#000000" font-family="sans-serif" font-size="13" lengthAdjust="spacingAndGlyphs" textLength="95" x="101" y="142.3672">Crawled Emails</text><path d="M13,162.1094 L75,162.1094 L75,169.1094 L65,179.1094 L13,179.1094 L13,162.1094 " fill="#EEEEEE" style="stroke: #000000; stroke-width: 1.0;"/><rect fill="none" height="250.4395" style="stroke: #000000; stroke-width: 2.0;" width="744" x="13" y="162.1094"/><text fill="#000000" font-family="sans-serif" font-size="13" font-weight="bold" lengthAdjust="spacingAndGlyphs" textLength="17" x="28" y="175.6777">alt</text><text fill="#000000" font-family="sans-serif" font-size="11" font-weight="bold" lengthAdjust="spacingAndGlyphs" textLength="104" x="90" y="174.7441">[new plan catched]</text><polygon fill="#A80036" points="319.5,196.7305,329.5,200.7305,319.5,204.7305,323.5,200.7305" style="stroke: #A80036; stroke-width: 1.0;"/><line style="stroke: #A80036; stroke-width: 1.0;" x1="71" x2="325.5" y1="200.7305" y2="200.7305"/><text fill="#000000" font-family="sans-serif" font-size="13" font-weight="bold" lengthAdjust="spacingAndGlyphs" textLength="9" x="78" y="195.9883">3</text><text fill="#000000" font-family="sans-serif" font-size="13" lengthAdjust="spacingAndGlyphs" textLength="163" x="91" y="195.9883">&lt;&lt;Event&gt;&gt; PlanDeployed</text><polygon fill="#A80036" points="495.5,226.041,505.5,230.041,495.5,234.041,499.5,230.041" style="stroke: #A80036; stroke-width: 1.0;"/><line style="stroke: #A80036; stroke-width: 1.0;" x1="331.5" x2="501.5" y1="230.041" y2="230.041"/><text fill="#000000" font-family="sans-serif" font-size="13" font-weight="bold" lengthAdjust="spacingAndGlyphs" textLength="9" x="338.5" y="225.2988">4</text><text fill="#000000" font-family="sans-serif" font-size="13" lengthAdjust="spacingAndGlyphs" textLength="139" x="351.5" y="225.2988">Request crawl options</text><polygon fill="#A80036" points="632.5,255.3516,642.5,259.3516,632.5,263.3516,636.5,259.3516" style="stroke: #A80036; stroke-width: 1.0;"/><line style="stroke: #A80036; stroke-width: 1.0;" x1="507.5" x2="638.5" y1="259.3516" y2="259.3516"/><text fill="#000000" font-family="sans-serif" font-size="13" font-weight="bold" lengthAdjust="spacingAndGlyphs" textLength="9" x="514.5" y="254.6094">5</text><text fill="#000000" font-family="sans-serif" font-size="13" lengthAdjust="spacingAndGlyphs" textLength="85" x="527.5" y="254.6094">CrawlOptions</text><polygon fill="#A80036" points="518.5,284.6621,508.5,288.6621,518.5,292.6621,514.5,288.6621" style="stroke: #A80036; stroke-width: 1.0;"/><line style="stroke: #A80036; stroke-width: 1.0; stroke-dasharray: 2.0,2.0;" x1="512.5" x2="643.5" y1="288.6621" y2="288.6621"/><text fill="#000000" font-family="sans-serif" font-size="13" font-weight="bold" lengthAdjust="spacingAndGlyphs" textLength="9" x="524.5" y="283.9199">6</text><text fill="#000000" font-family="sans-serif" font-size="13" lengthAdjust="spacingAndGlyphs" textLength="100" x="537.5" y="283.9199">CrawledOptions</text><polygon fill="#A80036" points="342.5,313.9727,332.5,317.9727,342.5,321.9727,338.5,317.9727" style="stroke: #A80036; stroke-width: 1.0;"/><line style="stroke: #A80036; stroke-width: 1.0; stroke-dasharray: 2.0,2.0;" x1="336.5" x2="506.5" y1="317.9727" y2="317.9727"/><text fill="#000000" font-family="sans-serif" font-size="13" font-weight="bold" lengthAdjust="spacingAndGlyphs" textLength="9" x="348.5" y="313.2305">7</text><text fill="#000000" font-family="sans-serif" font-size="13" lengthAdjust="spacingAndGlyphs" textLength="46" x="361.5" y="313.2305">Results</text><polygon fill="#A80036" points="700.5,343.2832,710.5,347.2832,700.5,351.2832,704.5,347.2832" style="stroke: #A80036; stroke-width: 1.0;"/><line style="stroke: #A80036; stroke-width: 1.0;" x1="331.5" x2="706.5" y1="347.2832" y2="347.2832"/><text fill="#000000" font-family="sans-serif" font-size="13" font-weight="bold" lengthAdjust="spacingAndGlyphs" textLength="9" x="338.5" y="342.541">8</text><text fill="#000000" font-family="sans-serif" font-size="13" lengthAdjust="spacingAndGlyphs" textLength="47" x="351.5" y="342.541">Save all</text><line style="stroke: #000000; stroke-width: 1.0; stroke-dasharray: 2.0,2.0;" x1="13" x2="757" y1="356.2832" y2="356.2832"/><text fill="#000000" font-family="sans-serif" font-size="11" font-weight="bold" lengthAdjust="spacingAndGlyphs" textLength="96" x="18" y="366.918">[no plan catched]</text><line style="stroke: #A80036; stroke-width: 1.0;" x1="71" x2="113" y1="391.5488" y2="391.5488"/><line style="stroke: #A80036; stroke-width: 1.0;" x1="113" x2="113" y1="391.5488" y2="404.5488"/><line style="stroke: #A80036; stroke-width: 1.0;" x1="72" x2="113" y1="404.5488" y2="404.5488"/><polygon fill="#A80036" points="82,400.5488,72,404.5488,82,408.5488,78,404.5488" style="stroke: #A80036; stroke-width: 1.0;"/><text fill="#000000" font-family="sans-serif" font-size="13" font-weight="bold" lengthAdjust="spacingAndGlyphs" textLength="9" x="78" y="386.8066">9</text><text fill="#000000" font-family="sans-serif" font-size="13" lengthAdjust="spacingAndGlyphs" textLength="98" x="91" y="386.8066">No Plan Cached</text><!--
@startuml
actor EmailCrawler
participant EmailService
participant Application
actor OptionCrawler
participant SRM
database Database

autonumber
EmailCrawler -> EmailService : Monitoring Emails
EmailService - -> EmailCrawler : Crawled Emails

alt new plan catched
EmailCrawler -> Application : <<Event>> PlanDeployed
Application -> OptionCrawler : Request crawl options
OptionCrawler -> SRM : CrawlOptions
SRM - -> OptionCrawler : CrawledOptions
OptionCrawler - -> Application : Results
Application -> Database : Save all
else no plan catched
EmailCrawler -> EmailCrawler : No Plan Cached
end
@enduml

PlantUML version 1.2019.09(Tue Aug 27 01:19:51 KST 2019)
(GPL source distribution)
Java Runtime: OpenJDK Runtime Environment
JVM: OpenJDK 64-Bit Server VM
Java Version: 11.0.2+9
Operating System: Mac OS X
OS Version: 10.15.4
Default Encoding: UTF-8
Language: ko
Country: KR
--></g></svg>